<svg xmlns="http://www.w3.org/2000/svg" width="239" height="149"><rect width="239" height="149" rx="8" fill="#0d1117"/><text x="77" y="13" fill="#8b949e" font-size="10" font-family="monospace">Feb</text><text x="137" y="13" fill="#8b949e" font-size="10" font-family="monospace">Mar</text><text x="212" y="13" fill="#8b949e" font-size="10" font-family="monospace">Apr</text><text x="2" y="29" fill="#8b949e" font-size="9" font-family="monospace">S</text><text x="2" y="44" fill="#8b949e" font-size="9" font-family="monospace">M</text><text x="2" y="59" fill="#8b949e" font-size="9" font-family="monospace">T</text><text x="2" y="74" fill="#8b949e" font-size="9" font-family="monospace">W</text><text x="2" y="89" fill="#8b949e" font-size="9" font-family="monospace">T</text><text x="2" y="104" fill="#8b949e" font-size="9" font-family="monospace">F</text><text x="2" y="119" fill="#8b949e" font-size="9" font-family="monospace">S</text><rect x="32" y="20" width="12" height="12" rx="2" fill="#161b22"><title>11 Jan 2026: 0 problems</title></rect><rect x="32" y="35" width="12" height="12" rx="2" fill="#161b22"><title>12 Jan 2026: 0 problems</title></rect><rect x="32" y="50" width="12" height="12" rx="2" fill="#161b22"><title>13 Jan 2026: 0 problems</title></rect><rect x="32" y="65" width="12" height="12" rx="2" fill="#161b22"><title>14 Jan 2026: 0 problems</title></rect><rect x="32" y="80" width="12" height="12" rx="2" fill="#161b22"><title>15 Jan 2026: 0 problems</title></rect><rect x="32" y="95" width="12" height="12" rx="2" fill="#161b22"><title>16 Jan 2026: 0 problems</title></rect><rect x="32" y="110" width="12" height="12" rx="2" fill="#161b22"><title>17 Jan 2026: 0 problems</title></rect><rect x="47" y="20" width="12" height="12" rx="2" fill="#161b22"><title>18 Jan 2026: 0 problems</title></rect><rect x="47" y="35" width="12" height="12" rx="2" fill="#161b22"><title>19 Jan 2026: 0 problems</title></rect><rect x="47" y="50" width="12" height="12" rx="2" fill="#161b22"><title>20 Jan 2026: 0 problems</title></rect><rect x="47" y="65" width="12" height="12" rx="2" fill="#161b22"><title>21 Jan 2026: 0 problems</title></rect><rect x="47" y="80" width="12" height="12" rx="2" fill="#161b22"><title>22 Jan 2026: 0 problems</title></rect><rect x="47" y="95" width="12" height="12" rx="2" fill="#161b22"><title>23 Jan 2026: 0 problems</title></rect><rect x="47" y="110" width="12" height="12" rx="2" fill="#161b22"><title>24 Jan 2026: 0 problems</title></rect><rect x="62" y="20" width="12" height="12" rx="2" fill="#161b22"><title>25 Jan 2026: 0 problems</title></rect><rect x="62" y="35" width="12" height="12" rx="2" fill="#161b22"><title>26 Jan 2026: 0 problems</title></rect><rect x="62" y="50" width="12" height="12" rx="2" fill="#161b22"><title>27 Jan 2026: 0 problems</title></rect><rect x="62" y="65" width="12" height="12" rx="2" fill="#161b22"><title>28 Jan 2026: 0 problems</title></rect><rect x="62" y="80" width="12" height="12" rx="2" fill="#161b22"><title>29 Jan 2026: 0 problems</title></rect><rect x="62" y="95" width="12" height="12" rx="2" fill="#161b22"><title>30 Jan 2026: 0 problems</title></rect><rect x="62" y="110" width="12" height="12" rx="2" fill="#161b22"><title>31 Jan 2026: 0 problems</title></rect><rect x="77" y="20" width="12" height="12" rx="2" fill="#161b22"><title>01 Feb 2026: 0 problems</title></rect><rect x="77" y="35" width="12" height="12" rx="2" fill="#161b22"><title>02 Feb 2026: 0 problems</title></rect><rect x="77" y="50" width="12" height="12" rx="2" fill="#161b22"><title>03 Feb 2026: 0 problems</title></rect><rect x="77" y="65" width="12" height="12" rx="2" fill="#161b22"><title>04 Feb 2026: 0 problems</title></rect><rect x="77" y="80" width="12" height="12" rx="2" fill="#161b22"><title>05 Feb 2026: 0 problems</title></rect><rect x="77" y="95" width="12" height="12" rx="2" fill="#161b22"><title>06 Feb 2026: 0 problems</title></rect><rect x="77" y="110" width="12" height="12" rx="2" fill="#161b22"><title>07 Feb 2026: 0 problems</title></rect><rect x="92" y="20" width="12" height="12" rx="2" fill="#161b22"><title>08 Feb 2026: 0 problems</title></rect><rect x="92" y="35" width="12" height="12" rx="2" fill="#161b22"><title>09 Feb 2026: 0 problems</title></rect><rect x="92" y="50" width="12" height="12" rx="2" fill="#161b22"><title>10 Feb 2026: 0 problems</title></rect><rect x="92" y="65" width="12" height="12" rx="2" fill="#161b22"><title>11 Feb 2026: 0 problems</title></rect><rect x="92" y="80" width="12" height="12" rx="2" fill="#161b22"><title>12 Feb 2026: 0 problems</title></rect><rect x="92" y="95" width="12" height="12" rx="2" fill="#161b22"><title>13 Feb 2026: 0 problems</title></rect><rect x="92" y="110" width="12" height="12" rx="2" fill="#161b22"><title>14 Feb 2026: 0 problems</title></rect><rect x="107" y="20" width="12" height="12" rx="2" fill="#161b22"><title>15 Feb 2026: 0 problems</title></rect><rect x="107" y="35" width="12" height="12" rx="2" fill="#161b22"><title>16 Feb 2026: 0 problems</title></rect><rect x="107" y="50" width="12" height="12" rx="2" fill="#161b22"><title>17 Feb 2026: 0 problems</title></rect><rect x="107" y="65" width="12" height="12" rx="2" fill="#161b22"><title>18 Feb 2026: 0 problems</title></rect><rect x="107" y="80" width="12" height="12" rx="2" fill="#161b22"><title>19 Feb 2026: 0 problems</title></rect><rect x="107" y="95" width="12" height="12" rx="2" fill="#161b22"><title>20 Feb 2026: 0 problems</title></rect><rect x="107" y="110" width="12" height="12" rx="2" fill="#161b22"><title>21 Feb 2026: 0 problems</title></rect><rect x="122" y="20" width="12" height="12" rx="2" fill="#161b22"><title>22 Feb 2026: 0 problems</title></rect><rect x="122" y="35" width="12" height="12" rx="2" fill="#161b22"><title>23 Feb 2026: 0 problems</title></rect><rect x="122" y="50" width="12" height="12" rx="2" fill="#161b22"><title>24 Feb 2026: 0 problems</title></rect><rect x="122" y="65" width="12" height="12" rx="2" fill="#161b22"><title>25 Feb 2026: 0 problems</title></rect><rect x="122" y="80" width="12" height="12" rx="2" fill="#161b22"><title>26 Feb 2026: 0 problems</title></rect><rect x="122" y="95" width="12" height="12" rx="2" fill="#161b22"><title>27 Feb 2026: 0 problems</title></rect><rect x="122" y="110" width="12" height="12" rx="2" fill="#161b22"><title>28 Feb 2026: 0 problems</title></rect><rect x="137" y="20" width="12" height="12" rx="2" fill="#161b22"><title>01 Mar 2026: 0 problems</title></rect><rect x="137" y="35" width="12" height="12" rx="2" fill="#161b22"><title>02 Mar 2026: 0 problems</title></rect><rect x="137" y="50" width="12" height="12" rx="2" fill="#161b22"><title>03 Mar 2026: 0 problems</title></rect><rect x="137" y="65" width="12" height="12" rx="2" fill="#161b22"><title>04 Mar 2026: 0 problems</title></rect><rect x="137" y="80" width="12" height="12" rx="2" fill="#161b22"><title>05 Mar 2026: 0 problems</title></rect><rect x="137" y="95" width="12" height="12" rx="2" fill="#161b22"><title>06 Mar 2026: 0 problems</title></rect><rect x="137" y="110" width="12" height="12" rx="2" fill="#161b22"><title>07 Mar 2026: 0 problems</title></rect><rect x="152" y="20" width="12" height="12" rx="2" fill="#161b22"><title>08 Mar 2026: 0 problems</title></rect><rect x="152" y="35" width="12" height="12" rx="2" fill="#161b22"><title>09 Mar 2026: 0 problems</title></rect><rect x="152" y="50" width="12" height="12" rx="2" fill="#161b22"><title>10 Mar 2026: 0 problems</title></rect><rect x="152" y="65" width="12" height="12" rx="2" fill="#161b22"><title>11 Mar 2026: 0 problems</title></rect><rect x="152" y="80" width="12" height="12" rx="2" fill="#161b22"><title>12 Mar 2026: 0 problems</title></rect><rect x="152" y="95" width="12" height="12" rx="2" fill="#161b22"><title>13 Mar 2026: 0 problems</title></rect><rect x="152" y="110" width="12" height="12" rx="2" fill="#161b22"><title>14 Mar 2026: 0 problems</title></rect><rect x="167" y="20" width="12" height="12" rx="2" fill="#161b22"><title>15 Mar 2026: 0 problems</title></rect><rect x="167" y="35" width="12" height="12" rx="2" fill="#161b22"><title>16 Mar 2026: 0 problems</title></rect><rect x="167" y="50" width="12" height="12" rx="2" fill="#161b22"><title>17 Mar 2026: 0 problems</title></rect><rect x="167" y="65" width="12" height="12" rx="2" fill="#161b22"><title>18 Mar 2026: 0 problems</title></rect><rect x="167" y="80" width="12" height="12" rx="2" fill="#161b22"><title>19 Mar 2026: 0 problems</title></rect><rect x="167" y="95" width="12" height="12" rx="2" fill="#161b22"><title>20 Mar 2026: 0 problems</title></rect><rect x="167" y="110" width="12" height="12" rx="2" fill="#161b22"><title>21 Mar 2026: 0 problems</title></rect><rect x="182" y="20" width="12" height="12" rx="2" fill="#161b22"><title>22 Mar 2026: 0 problems</title></rect><rect x="182" y="35" width="12" height="12" rx="2" fill="#161b22"><title>23 Mar 2026: 0 problems</title></rect><rect x="182" y="50" width="12" height="12" rx="2" fill="#0e4429"><title>24 Mar 2026: 1 problem</title></rect><rect x="182" y="65" width="12" height="12" rx="2" fill="#006d32"><title>25 Mar 2026: 2 problems</title></rect><rect x="182" y="80" width="12" height="12" rx="2" fill="#26a641"><title>26 Mar 2026: 3 problems</title></rect><rect x="182" y="95" width="12" height="12" rx="2" fill="#006d32"><title>27 Mar 2026: 2 problems</title></rect><rect x="182" y="110" width="12" height="12" rx="2" fill="#006d32"><title>28 Mar 2026: 2 problems</title></rect><rect x="197" y="20" width="12" height="12" rx="2" fill="#26a641"><title>29 Mar 2026: 4 problems</title></rect><rect x="197" y="35" width="12" height="12" rx="2" fill="#006d32"><title>30 Mar 2026: 2 problems</title></rect><rect x="197" y="50" width="12" height="12" rx="2" fill="#26a641"><title>31 Mar 2026: 3 problems</title></rect><rect x="197" y="65" width="12" height="12" rx="2" fill="#006d32"><title>01 Apr 2026: 2 problems</title></rect><rect x="197" y="80" width="12" height="12" rx="2" fill="#26a641"><title>02 Apr 2026: 4 problems</title></rect><rect x="197" y="95" width="12" height="12" rx="2" fill="#26a641"><title>03 Apr 2026: 3 problems</title></rect><rect x="197" y="110" width="12" height="12" rx="2" fill="#161b22"><title>04 Apr 2026: 0 problems</title></rect><rect x="212" y="20" width="12" height="12" rx="2" fill="#26a641"><title>05 Apr 2026: 4 problems</title></rect><rect x="212" y="35" width="12" height="12" rx="2" fill="#26a641"><title>06 Apr 2026: 3 problems</title></rect><rect x="212" y="50" width="12" height="12" rx="2" fill="#006d32"><title>07 Apr 2026: 2 problems</title></rect><rect x="212" y="65" width="12" height="12" rx="2" fill="#161b22"><title>08 Apr 2026: 0 problems</title></rect><rect x="212" y="80" width="12" height="12" rx="2" fill="#161b22" opacity="0.3"/><rect x="212" y="95" width="12" height="12" rx="2" fill="#161b22" opacity="0.3"/><rect x="212" y="110" width="12" height="12" rx="2" fill="#161b22" opacity="0.3"/><text x="147" y="144" fill="#8b949e" font-size="9" font-family="monospace">Less</text><rect x="171" y="134" width="10" height="10" rx="2" fill="#161b22"/><rect x="185" y="134" width="10" height="10" rx="2" fill="#0e4429"/><rect x="199" y="134" width="10" height="10" rx="2" fill="#26a641"/><rect x="213" y="134" width="10" height="10" rx="2" fill="#39d353"/><text x="235" y="144" fill="#8b949e" font-size="9" font-family="monospace" text-anchor="end">More</text></svg>