<svg xmlns="http://www.w3.org/2000/svg" width="434" height="169">
    <rect width="100%" height="100%" fill="#0d1117" rx="10"/>
    <text x="20" y="20" fill="#58a6ff" font-size="12" font-family="monospace" font-weight="bold">COMMIT ENGINE: STREAK ACTIVE</text>
    <rect x="40" y="30" width="14" height="14" rx="3" fill="#161b22"></rect><rect x="40" y="47" width="14" height="14" rx="3" fill="#161b22"></rect><rect x="40" y="64" width="14" height="14" rx="3" fill="#161b22"></rect><rect x="40" y="81" width="14" height="14" rx="3" fill="#161b22"></rect><rect x="40" y="98" width="14" height="14" rx="3" fill="#161b22"></rect><rect x="40" y="115" width="14" height="14" rx="3" fill="#161b22"></rect><rect x="40" y="132" width="14" height="14" rx="3" fill="#161b22"></rect><rect x="57" y="30" width="14" height="14" rx="3" fill="#161b22"></rect><rect x="57" y="47" width="14" height="14" rx="3" fill="#161b22"></rect><rect x="57" y="64" width="14" height="14" rx="3" fill="#161b22"></rect><rect x="57" y="81" width="14" height="14" rx="3" fill="#161b22"></rect><rect x="57" y="98" width="14" height="14" rx="3" fill="#161b22"></rect><rect x="57" y="115" width="14" height="14" rx="3" fill="#161b22"></rect><rect x="57" y="132" width="14" height="14" rx="3" fill="#161b22"></rect><rect x="74" y="30" width="14" height="14" rx="3" fill="#161b22"></rect><rect x="74" y="47" width="14" height="14" rx="3" fill="#161b22"></rect><rect x="74" y="64" width="14" height="14" rx="3" fill="#161b22"></rect><rect x="74" y="81" width="14" height="14" rx="3" fill="#161b22"></rect><rect x="74" y="98" width="14" height="14" rx="3" fill="#161b22"></rect><rect x="74" y="115" width="14" height="14" rx="3" fill="#161b22"></rect><rect x="74" y="132" width="14" height="14" rx="3" fill="#161b22"></rect><rect x="91" y="30" width="14" height="14" rx="3" fill="#161b22"></rect><rect x="91" y="47" width="14" height="14" rx="3" fill="#161b22"></rect><rect x="91" y="64" width="14" height="14" rx="3" fill="#161b22"></rect><rect x="91" y="81" width="14" height="14" rx="3" fill="#161b22"></rect><rect x="91" y="98" width="14" height="14" rx="3" fill="#161b22"></rect><rect x="91" y="115" width="14" height="14" rx="3" fill="#161b22"></rect><rect x="91" y="132" width="14" height="14" rx="3" fill="#161b22"></rect><rect x="108" y="30" width="14" height="14" rx="3" fill="#161b22"></rect><rect x="108" y="47" width="14" height="14" rx="3" fill="#161b22"></rect><rect x="108" y="64" width="14" height="14" rx="3" fill="#161b22"></rect><rect x="108" y="81" width="14" height="14" rx="3" fill="#161b22"></rect><rect x="108" y="98" width="14" height="14" rx="3" fill="#161b22"></rect><rect x="108" y="115" width="14" height="14" rx="3" fill="#161b22"></rect><rect x="108" y="132" width="14" height="14" rx="3" fill="#161b22"></rect><rect x="125" y="30" width="14" height="14" rx="3" fill="#161b22"></rect><rect x="125" y="47" width="14" height="14" rx="3" fill="#161b22"></rect><rect x="125" y="64" width="14" height="14" rx="3" fill="#161b22"></rect><rect x="125" y="81" width="14" height="14" rx="3" fill="#161b22"></rect><rect x="125" y="98" width="14" height="14" rx="3" fill="#161b22"></rect><rect x="125" y="115" width="14" height="14" rx="3" fill="#161b22"></rect><rect x="125" y="132" width="14" height="14" rx="3" fill="#161b22"></rect><rect x="142" y="30" width="14" height="14" rx="3" fill="#161b22"></rect><rect x="142" y="47" width="14" height="14" rx="3" fill="#161b22"></rect><rect x="142" y="64" width="14" height="14" rx="3" fill="#161b22"></rect><rect x="142" y="81" width="14" height="14" rx="3" fill="#161b22"></rect><rect x="142" y="98" width="14" height="14" rx="3" fill="#161b22"></rect><rect x="142" y="115" width="14" height="14" rx="3" fill="#161b22"></rect><rect x="142" y="132" width="14" height="14" rx="3" fill="#161b22"></rect><rect x="159" y="30" width="14" height="14" rx="3" fill="#161b22"></rect><rect x="159" y="47" width="14" height="14" rx="3" fill="#161b22"></rect><rect x="159" y="64" width="14" height="14" rx="3" fill="#161b22"></rect><rect x="159" y="81" width="14" height="14" rx="3" fill="#161b22"></rect><rect x="159" y="98" width="14" height="14" rx="3" fill="#161b22"></rect><rect x="159" y="115" width="14" height="14" rx="3" fill="#161b22"></rect><rect x="159" y="132" width="14" height="14" rx="3" fill="#161b22"></rect><rect x="176" y="30" width="14" height="14" rx="3" fill="#161b22"></rect><rect x="176" y="47" width="14" height="14" rx="3" fill="#161b22"></rect><rect x="176" y="64" width="14" height="14" rx="3" fill="#161b22"></rect><rect x="176" y="81" width="14" height="14" rx="3" fill="#161b22"></rect><rect x="176" y="98" width="14" height="14" rx="3" fill="#161b22"></rect><rect x="176" y="115" width="14" height="14" rx="3" fill="#161b22"></rect><rect x="176" y="132" width="14" height="14" rx="3" fill="#161b22"></rect><rect x="193" y="30" width="14" height="14" rx="3" fill="#161b22"></rect><rect x="193" y="47" width="14" height="14" rx="3" fill="#161b22"></rect><rect x="193" y="64" width="14" height="14" rx="3" fill="#161b22"></rect><rect x="193" y="81" width="14" height="14" rx="3" fill="#161b22"></rect><rect x="193" y="98" width="14" height="14" rx="3" fill="#161b22"></rect><rect x="193" y="115" width="14" height="14" rx="3" fill="#161b22"></rect><rect x="193" y="132" width="14" height="14" rx="3" fill="#161b22"></rect><rect x="210" y="30" width="14" height="14" rx="3" fill="#161b22"></rect><rect x="210" y="47" width="14" height="14" rx="3" fill="#161b22"></rect><rect x="210" y="64" width="14" height="14" rx="3" fill="#161b22"></rect><rect x="210" y="81" width="14" height="14" rx="3" fill="#161b22"></rect><rect x="210" y="98" width="14" height="14" rx="3" fill="#161b22"></rect><rect x="210" y="115" width="14" height="14" rx="3" fill="#161b22"></rect><rect x="210" y="132" width="14" height="14" rx="3" fill="#161b22"></rect><rect x="227" y="30" width="14" height="14" rx="3" fill="#161b22"></rect><rect x="227" y="47" width="14" height="14" rx="3" fill="#161b22"></rect><rect x="227" y="64" width="14" height="14" rx="3" fill="#161b22"></rect><rect x="227" y="81" width="14" height="14" rx="3" fill="#161b22"></rect><rect x="227" y="98" width="14" height="14" rx="3" fill="#161b22"></rect><rect x="227" y="115" width="14" height="14" rx="3" fill="#161b22"></rect><rect x="227" y="132" width="14" height="14" rx="3" fill="#161b22"></rect><rect x="244" y="30" width="14" height="14" rx="3" fill="#161b22"></rect><rect x="244" y="47" width="14" height="14" rx="3" fill="#161b22"></rect><rect x="244" y="64" width="14" height="14" rx="3" fill="#161b22"></rect><rect x="244" y="81" width="14" height="14" rx="3" fill="#161b22"></rect><rect x="244" y="98" width="14" height="14" rx="3" fill="#161b22"></rect><rect x="244" y="115" width="14" height="14" rx="3" fill="#161b22"></rect><rect x="244" y="132" width="14" height="14" rx="3" fill="#161b22"></rect><rect x="261" y="30" width="14" height="14" rx="3" fill="#161b22"></rect><rect x="261" y="47" width="14" height="14" rx="3" fill="#161b22"></rect><rect x="261" y="64" width="14" height="14" rx="3" fill="#161b22"></rect><rect x="261" y="81" width="14" height="14" rx="3" fill="#161b22"></rect><rect x="261" y="98" width="14" height="14" rx="3" fill="#161b22"></rect><rect x="261" y="115" width="14" height="14" rx="3" fill="#161b22"></rect><rect x="261" y="132" width="14" height="14" rx="3" fill="#161b22"></rect><rect x="278" y="30" width="14" height="14" rx="3" fill="#161b22"></rect><rect x="278" y="47" width="14" height="14" rx="3" fill="#161b22"></rect><rect x="278" y="64" width="14" height="14" rx="3" fill="#161b22"></rect><rect x="278" y="81" width="14" height="14" rx="3" fill="#161b22"></rect><rect x="278" y="98" width="14" height="14" rx="3" fill="#161b22"></rect><rect x="278" y="115" width="14" height="14" rx="3" fill="#161b22"></rect><rect x="278" y="132" width="14" height="14" rx="3" fill="#161b22"></rect><rect x="295" y="30" width="14" height="14" rx="3" fill="#161b22"></rect><rect x="295" y="47" width="14" height="14" rx="3" fill="#161b22"></rect><rect x="295" y="64" width="14" height="14" rx="3" fill="#161b22"></rect><rect x="295" y="81" width="14" height="14" rx="3" fill="#161b22"></rect><rect x="295" y="98" width="14" height="14" rx="3" fill="#161b22"></rect><rect x="295" y="115" width="14" height="14" rx="3" fill="#161b22"></rect><rect x="295" y="132" width="14" height="14" rx="3" fill="#161b22"></rect><rect x="312" y="30" width="14" height="14" rx="3" fill="#161b22"></rect><rect x="312" y="47" width="14" height="14" rx="3" fill="#161b22"></rect><rect x="312" y="64" width="14" height="14" rx="3" fill="#161b22"></rect><rect x="312" y="81" width="14" height="14" rx="3" fill="#161b22"></rect><rect x="312" y="98" width="14" height="14" rx="3" fill="#161b22"></rect><rect x="312" y="115" width="14" height="14" rx="3" fill="#161b22"></rect><rect x="312" y="132" width="14" height="14" rx="3" fill="#161b22"></rect><rect x="329" y="30" width="14" height="14" rx="3" fill="#161b22"></rect><rect x="329" y="47" width="14" height="14" rx="3" fill="#161b22"></rect><rect x="329" y="64" width="14" height="14" rx="3" fill="#161b22"></rect><rect x="329" y="81" width="14" height="14" rx="3" fill="#161b22"></rect><rect x="329" y="98" width="14" height="14" rx="3" fill="#161b22"></rect><rect x="329" y="115" width="14" height="14" rx="3" fill="#161b22"></rect><rect x="329" y="132" width="14" height="14" rx="3" fill="#161b22"></rect><rect x="346" y="30" width="14" height="14" rx="3" fill="#161b22"></rect><rect x="346" y="47" width="14" height="14" rx="3" fill="#161b22"></rect><rect x="346" y="64" width="14" height="14" rx="3" fill="#161b22"></rect><rect x="346" y="81" width="14" height="14" rx="3" fill="#161b22"></rect><rect x="346" y="98" width="14" height="14" rx="3" fill="#161b22"></rect><rect x="346" y="115" width="14" height="14" rx="3" fill="#161b22"></rect><rect x="346" y="132" width="14" height="14" rx="3" fill="#161b22"></rect><rect x="363" y="30" width="14" height="14" rx="3" fill="#161b22"></rect><rect x="363" y="47" width="14" height="14" rx="3" fill="#161b22"></rect><rect x="363" y="64" width="14" height="14" rx="3" fill="#0e4429"></rect><rect x="363" y="81" width="14" height="14" rx="3" fill="#006d32"></rect><rect x="363" y="98" width="14" height="14" rx="3" fill="#26a641"></rect><rect x="363" y="115" width="14" height="14" rx="3" fill="#006d32"></rect><rect x="363" y="132" width="14" height="14" rx="3" fill="#006d32"></rect><rect x="380" y="30" width="14" height="14" rx="3" fill="#26a641"></rect><rect x="380" y="47" width="14" height="14" rx="3" fill="#006d32"></rect><rect x="380" y="64" width="14" height="14" rx="3" fill="#26a641"></rect><rect x="380" y="81" width="14" height="14" rx="3" fill="#006d32"></rect><rect x="380" y="98" width="14" height="14" rx="3" fill="#26a641"></rect><rect x="380" y="115" width="14" height="14" rx="3" fill="#26a641"></rect><rect x="380" y="132" width="14" height="14" rx="3" fill="#161b22"></rect><rect x="397" y="30" width="14" height="14" rx="3" fill="#26a641"></rect><rect x="397" y="47" width="14" height="14" rx="3" fill="#26a641"></rect><rect x="397" y="64" width="14" height="14" rx="3" fill="#006d32"></rect><rect x="397" y="81" width="14" height="14" rx="3" fill="#161b22"></rect><rect x="397" y="98" width="14" height="14" rx="3" fill="#0d1117"></rect><rect x="397" y="115" width="14" height="14" rx="3" fill="#0d1117"></rect><rect x="397" y="132" width="14" height="14" rx="3" fill="#0d1117"></rect></svg>