<svg xmlns="http://www.w3.org/2000/svg" width="260" height="148" style="background:#0d1117;border-radius:8px;padding:4px">
<text x="26" y="16" fill="#8b949e" font-size="10" font-family="monospace">Jan</text><text x="90" y="16" fill="#8b949e" font-size="10" font-family="monospace">Feb</text><text x="154" y="16" fill="#8b949e" font-size="10" font-family="monospace">Mar</text><text x="218" y="16" fill="#8b949e" font-size="10" font-family="monospace">Apr</text>
<text x="22" y="33" fill="#8b949e" font-size="9" font-family="monospace" text-anchor="end">Sun</text><text x="22" y="65" fill="#8b949e" font-size="9" font-family="monospace" text-anchor="end">Tue</text><text x="22" y="97" fill="#8b949e" font-size="9" font-family="monospace" text-anchor="end">Thu</text><text x="22" y="129" fill="#8b949e" font-size="9" font-family="monospace" text-anchor="end">Sat</text>
<rect x="26" y="22" width="13" height="13" rx="2" fill="#0d1117"><title>04 Jan: 0 problems</title></rect><rect x="26" y="38" width="13" height="13" rx="2" fill="#0d1117"><title>05 Jan: 0 problems</title></rect><rect x="26" y="54" width="13" height="13" rx="2" fill="#161b22"><title>06 Jan: 0 problems</title></rect><rect x="26" y="70" width="13" height="13" rx="2" fill="#161b22"><title>07 Jan: 0 problems</title></rect><rect x="26" y="86" width="13" height="13" rx="2" fill="#161b22"><title>08 Jan: 0 problems</title></rect><rect x="26" y="102" width="13" height="13" rx="2" fill="#161b22"><title>09 Jan: 0 problems</title></rect><rect x="26" y="118" width="13" height="13" rx="2" fill="#161b22"><title>10 Jan: 0 problems</title></rect><rect x="42" y="22" width="13" height="13" rx="2" fill="#161b22"><title>11 Jan: 0 problems</title></rect><rect x="42" y="38" width="13" height="13" rx="2" fill="#161b22"><title>12 Jan: 0 problems</title></rect><rect x="42" y="54" width="13" height="13" rx="2" fill="#161b22"><title>13 Jan: 0 problems</title></rect><rect x="42" y="70" width="13" height="13" rx="2" fill="#161b22"><title>14 Jan: 0 problems</title></rect><rect x="42" y="86" width="13" height="13" rx="2" fill="#161b22"><title>15 Jan: 0 problems</title></rect><rect x="42" y="102" width="13" height="13" rx="2" fill="#161b22"><title>16 Jan: 0 problems</title></rect><rect x="42" y="118" width="13" height="13" rx="2" fill="#161b22"><title>17 Jan: 0 problems</title></rect><rect x="58" y="22" width="13" height="13" rx="2" fill="#161b22"><title>18 Jan: 0 problems</title></rect><rect x="58" y="38" width="13" height="13" rx="2" fill="#161b22"><title>19 Jan: 0 problems</title></rect><rect x="58" y="54" width="13" height="13" rx="2" fill="#161b22"><title>20 Jan: 0 problems</title></rect><rect x="58" y="70" width="13" height="13" rx="2" fill="#161b22"><title>21 Jan: 0 problems</title></rect><rect x="58" y="86" width="13" height="13" rx="2" fill="#161b22"><title>22 Jan: 0 problems</title></rect><rect x="58" y="102" width="13" height="13" rx="2" fill="#161b22"><title>23 Jan: 0 problems</title></rect><rect x="58" y="118" width="13" height="13" rx="2" fill="#161b22"><title>24 Jan: 0 problems</title></rect><rect x="74" y="22" width="13" height="13" rx="2" fill="#161b22"><title>25 Jan: 0 problems</title></rect><rect x="74" y="38" width="13" height="13" rx="2" fill="#161b22"><title>26 Jan: 0 problems</title></rect><rect x="74" y="54" width="13" height="13" rx="2" fill="#161b22"><title>27 Jan: 0 problems</title></rect><rect x="74" y="70" width="13" height="13" rx="2" fill="#161b22"><title>28 Jan: 0 problems</title></rect><rect x="74" y="86" width="13" height="13" rx="2" fill="#161b22"><title>29 Jan: 0 problems</title></rect><rect x="74" y="102" width="13" height="13" rx="2" fill="#161b22"><title>30 Jan: 0 problems</title></rect><rect x="74" y="118" width="13" height="13" rx="2" fill="#161b22"><title>31 Jan: 0 problems</title></rect><rect x="90" y="22" width="13" height="13" rx="2" fill="#161b22"><title>01 Feb: 0 problems</title></rect><rect x="90" y="38" width="13" height="13" rx="2" fill="#161b22"><title>02 Feb: 0 problems</title></rect><rect x="90" y="54" width="13" height="13" rx="2" fill="#161b22"><title>03 Feb: 0 problems</title></rect><rect x="90" y="70" width="13" height="13" rx="2" fill="#161b22"><title>04 Feb: 0 problems</title></rect><rect x="90" y="86" width="13" height="13" rx="2" fill="#161b22"><title>05 Feb: 0 problems</title></rect><rect x="90" y="102" width="13" height="13" rx="2" fill="#161b22"><title>06 Feb: 0 problems</title></rect><rect x="90" y="118" width="13" height="13" rx="2" fill="#161b22"><title>07 Feb: 0 problems</title></rect><rect x="106" y="22" width="13" height="13" rx="2" fill="#161b22"><title>08 Feb: 0 problems</title></rect><rect x="106" y="38" width="13" height="13" rx="2" fill="#161b22"><title>09 Feb: 0 problems</title></rect><rect x="106" y="54" width="13" height="13" rx="2" fill="#161b22"><title>10 Feb: 0 problems</title></rect><rect x="106" y="70" width="13" height="13" rx="2" fill="#161b22"><title>11 Feb: 0 problems</title></rect><rect x="106" y="86" width="13" height="13" rx="2" fill="#161b22"><title>12 Feb: 0 problems</title></rect><rect x="106" y="102" width="13" height="13" rx="2" fill="#161b22"><title>13 Feb: 0 problems</title></rect><rect x="106" y="118" width="13" height="13" rx="2" fill="#161b22"><title>14 Feb: 0 problems</title></rect><rect x="122" y="22" width="13" height="13" rx="2" fill="#161b22"><title>15 Feb: 0 problems</title></rect><rect x="122" y="38" width="13" height="13" rx="2" fill="#161b22"><title>16 Feb: 0 problems</title></rect><rect x="122" y="54" width="13" height="13" rx="2" fill="#161b22"><title>17 Feb: 0 problems</title></rect><rect x="122" y="70" width="13" height="13" rx="2" fill="#161b22"><title>18 Feb: 0 problems</title></rect><rect x="122" y="86" width="13" height="13" rx="2" fill="#161b22"><title>19 Feb: 0 problems</title></rect><rect x="122" y="102" width="13" height="13" rx="2" fill="#161b22"><title>20 Feb: 0 problems</title></rect><rect x="122" y="118" width="13" height="13" rx="2" fill="#161b22"><title>21 Feb: 0 problems</title></rect><rect x="138" y="22" width="13" height="13" rx="2" fill="#161b22"><title>22 Feb: 0 problems</title></rect><rect x="138" y="38" width="13" height="13" rx="2" fill="#161b22"><title>23 Feb: 0 problems</title></rect><rect x="138" y="54" width="13" height="13" rx="2" fill="#161b22"><title>24 Feb: 0 problems</title></rect><rect x="138" y="70" width="13" height="13" rx="2" fill="#161b22"><title>25 Feb: 0 problems</title></rect><rect x="138" y="86" width="13" height="13" rx="2" fill="#161b22"><title>26 Feb: 0 problems</title></rect><rect x="138" y="102" width="13" height="13" rx="2" fill="#161b22"><title>27 Feb: 0 problems</title></rect><rect x="138" y="118" width="13" height="13" rx="2" fill="#161b22"><title>28 Feb: 0 problems</title></rect><rect x="154" y="22" width="13" height="13" rx="2" fill="#161b22"><title>01 Mar: 0 problems</title></rect><rect x="154" y="38" width="13" height="13" rx="2" fill="#161b22"><title>02 Mar: 0 problems</title></rect><rect x="154" y="54" width="13" height="13" rx="2" fill="#161b22"><title>03 Mar: 0 problems</title></rect><rect x="154" y="70" width="13" height="13" rx="2" fill="#161b22"><title>04 Mar: 0 problems</title></rect><rect x="154" y="86" width="13" height="13" rx="2" fill="#161b22"><title>05 Mar: 0 problems</title></rect><rect x="154" y="102" width="13" height="13" rx="2" fill="#161b22"><title>06 Mar: 0 problems</title></rect><rect x="154" y="118" width="13" height="13" rx="2" fill="#161b22"><title>07 Mar: 0 problems</title></rect><rect x="170" y="22" width="13" height="13" rx="2" fill="#161b22"><title>08 Mar: 0 problems</title></rect><rect x="170" y="38" width="13" height="13" rx="2" fill="#161b22"><title>09 Mar: 0 problems</title></rect><rect x="170" y="54" width="13" height="13" rx="2" fill="#161b22"><title>10 Mar: 0 problems</title></rect><rect x="170" y="70" width="13" height="13" rx="2" fill="#161b22"><title>11 Mar: 0 problems</title></rect><rect x="170" y="86" width="13" height="13" rx="2" fill="#161b22"><title>12 Mar: 0 problems</title></rect><rect x="170" y="102" width="13" height="13" rx="2" fill="#161b22"><title>13 Mar: 0 problems</title></rect><rect x="170" y="118" width="13" height="13" rx="2" fill="#161b22"><title>14 Mar: 0 problems</title></rect><rect x="186" y="22" width="13" height="13" rx="2" fill="#161b22"><title>15 Mar: 0 problems</title></rect><rect x="186" y="38" width="13" height="13" rx="2" fill="#161b22"><title>16 Mar: 0 problems</title></rect><rect x="186" y="54" width="13" height="13" rx="2" fill="#161b22"><title>17 Mar: 0 problems</title></rect><rect x="186" y="70" width="13" height="13" rx="2" fill="#161b22"><title>18 Mar: 0 problems</title></rect><rect x="186" y="86" width="13" height="13" rx="2" fill="#161b22"><title>19 Mar: 0 problems</title></rect><rect x="186" y="102" width="13" height="13" rx="2" fill="#161b22"><title>20 Mar: 0 problems</title></rect><rect x="186" y="118" width="13" height="13" rx="2" fill="#161b22"><title>21 Mar: 0 problems</title></rect><rect x="202" y="22" width="13" height="13" rx="2" fill="#161b22"><title>22 Mar: 0 problems</title></rect><rect x="202" y="38" width="13" height="13" rx="2" fill="#161b22"><title>23 Mar: 0 problems</title></rect><rect x="202" y="54" width="13" height="13" rx="2" fill="#0e4429"><title>24 Mar: 1 problem</title></rect><rect x="202" y="70" width="13" height="13" rx="2" fill="#006d32"><title>25 Mar: 2 problems</title></rect><rect x="202" y="86" width="13" height="13" rx="2" fill="#26a641"><title>26 Mar: 3 problems</title></rect><rect x="202" y="102" width="13" height="13" rx="2" fill="#006d32"><title>27 Mar: 2 problems</title></rect><rect x="202" y="118" width="13" height="13" rx="2" fill="#006d32"><title>28 Mar: 2 problems</title></rect><rect x="218" y="22" width="13" height="13" rx="2" fill="#39d353"><title>29 Mar: 4 problems</title></rect><rect x="218" y="38" width="13" height="13" rx="2" fill="#006d32"><title>30 Mar: 2 problems</title></rect><rect x="218" y="54" width="13" height="13" rx="2" fill="#26a641"><title>31 Mar: 3 problems</title></rect><rect x="218" y="70" width="13" height="13" rx="2" fill="#006d32"><title>01 Apr: 2 problems</title></rect><rect x="218" y="86" width="13" height="13" rx="2" fill="#39d353"><title>02 Apr: 4 problems</title></rect><rect x="218" y="102" width="13" height="13" rx="2" fill="#26a641"><title>03 Apr: 3 problems</title></rect><rect x="218" y="118" width="13" height="13" rx="2" fill="#161b22"><title>04 Apr: 0 problems</title></rect><rect x="234" y="22" width="13" height="13" rx="2" fill="#39d353"><title>05 Apr: 4 problems</title></rect>
<rect x="170" y="131" width="13" height="13" rx="2" fill="#161b22"/><rect x="186" y="131" width="13" height="13" rx="2" fill="#0e4429"/><rect x="202" y="131" width="13" height="13" rx="2" fill="#006d32"/><rect x="218" y="131" width="13" height="13" rx="2" fill="#26a641"/><rect x="234" y="131" width="13" height="13" rx="2" fill="#39d353"/><text x="166" y="142" fill="#8b949e" font-size="9" font-family="monospace" text-anchor="end">Less</text><text x="250" y="142" fill="#8b949e" font-size="9" font-family="monospace">More</text>
</svg>