<svg xmlns="http://www.w3.org/2000/svg" width="340" height="145"><rect width="100%" height="100%" fill="#0d1117" rx="6"/><text x="10" y="15" fill="#8b949e" font-size="10" font-family="monospace">Practice Heatmap</text><rect x="30" y="20" width="12" height="12" rx="2" fill="#161b22"><title>2025-11-23: 0 problems</title></rect><rect x="30" y="35" width="12" height="12" rx="2" fill="#161b22"><title>2025-11-24: 0 problems</title></rect><rect x="30" y="50" width="12" height="12" rx="2" fill="#161b22"><title>2025-11-25: 0 problems</title></rect><rect x="30" y="65" width="12" height="12" rx="2" fill="#161b22"><title>2025-11-26: 0 problems</title></rect><rect x="30" y="80" width="12" height="12" rx="2" fill="#161b22"><title>2025-11-27: 0 problems</title></rect><rect x="30" y="95" width="12" height="12" rx="2" fill="#161b22"><title>2025-11-28: 0 problems</title></rect><rect x="30" y="110" width="12" height="12" rx="2" fill="#161b22"><title>2025-11-29: 0 problems</title></rect><rect x="45" y="20" width="12" height="12" rx="2" fill="#161b22"><title>2025-11-30: 0 problems</title></rect><rect x="45" y="35" width="12" height="12" rx="2" fill="#161b22"><title>2025-12-01: 0 problems</title></rect><rect x="45" y="50" width="12" height="12" rx="2" fill="#161b22"><title>2025-12-02: 0 problems</title></rect><rect x="45" y="65" width="12" height="12" rx="2" fill="#161b22"><title>2025-12-03: 0 problems</title></rect><rect x="45" y="80" width="12" height="12" rx="2" fill="#161b22"><title>2025-12-04: 0 problems</title></rect><rect x="45" y="95" width="12" height="12" rx="2" fill="#161b22"><title>2025-12-05: 0 problems</title></rect><rect x="45" y="110" width="12" height="12" rx="2" fill="#161b22"><title>2025-12-06: 0 problems</title></rect><rect x="60" y="20" width="12" height="12" rx="2" fill="#161b22"><title>2025-12-07: 0 problems</title></rect><rect x="60" y="35" width="12" height="12" rx="2" fill="#161b22"><title>2025-12-08: 0 problems</title></rect><rect x="60" y="50" width="12" height="12" rx="2" fill="#161b22"><title>2025-12-09: 0 problems</title></rect><rect x="60" y="65" width="12" height="12" rx="2" fill="#161b22"><title>2025-12-10: 0 problems</title></rect><rect x="60" y="80" width="12" height="12" rx="2" fill="#161b22"><title>2025-12-11: 0 problems</title></rect><rect x="60" y="95" width="12" height="12" rx="2" fill="#161b22"><title>2025-12-12: 0 problems</title></rect><rect x="60" y="110" width="12" height="12" rx="2" fill="#161b22"><title>2025-12-13: 0 problems</title></rect><rect x="75" y="20" width="12" height="12" rx="2" fill="#161b22"><title>2025-12-14: 0 problems</title></rect><rect x="75" y="35" width="12" height="12" rx="2" fill="#161b22"><title>2025-12-15: 0 problems</title></rect><rect x="75" y="50" width="12" height="12" rx="2" fill="#161b22"><title>2025-12-16: 0 problems</title></rect><rect x="75" y="65" width="12" height="12" rx="2" fill="#161b22"><title>2025-12-17: 0 problems</title></rect><rect x="75" y="80" width="12" height="12" rx="2" fill="#161b22"><title>2025-12-18: 0 problems</title></rect><rect x="75" y="95" width="12" height="12" rx="2" fill="#161b22"><title>2025-12-19: 0 problems</title></rect><rect x="75" y="110" width="12" height="12" rx="2" fill="#161b22"><title>2025-12-20: 0 problems</title></rect><rect x="90" y="20" width="12" height="12" rx="2" fill="#161b22"><title>2025-12-21: 0 problems</title></rect><rect x="90" y="35" width="12" height="12" rx="2" fill="#161b22"><title>2025-12-22: 0 problems</title></rect><rect x="90" y="50" width="12" height="12" rx="2" fill="#161b22"><title>2025-12-23: 0 problems</title></rect><rect x="90" y="65" width="12" height="12" rx="2" fill="#161b22"><title>2025-12-24: 0 problems</title></rect><rect x="90" y="80" width="12" height="12" rx="2" fill="#161b22"><title>2025-12-25: 0 problems</title></rect><rect x="90" y="95" width="12" height="12" rx="2" fill="#161b22"><title>2025-12-26: 0 problems</title></rect><rect x="90" y="110" width="12" height="12" rx="2" fill="#161b22"><title>2025-12-27: 0 problems</title></rect><rect x="105" y="20" width="12" height="12" rx="2" fill="#161b22"><title>2025-12-28: 0 problems</title></rect><rect x="105" y="35" width="12" height="12" rx="2" fill="#161b22"><title>2025-12-29: 0 problems</title></rect><rect x="105" y="50" width="12" height="12" rx="2" fill="#161b22"><title>2025-12-30: 0 problems</title></rect><rect x="105" y="65" width="12" height="12" rx="2" fill="#161b22"><title>2025-12-31: 0 problems</title></rect><rect x="105" y="80" width="12" height="12" rx="2" fill="#161b22"><title>2026-01-01: 0 problems</title></rect><rect x="105" y="95" width="12" height="12" rx="2" fill="#161b22"><title>2026-01-02: 0 problems</title></rect><rect x="105" y="110" width="12" height="12" rx="2" fill="#161b22"><title>2026-01-03: 0 problems</title></rect><rect x="120" y="20" width="12" height="12" rx="2" fill="#161b22"><title>2026-01-04: 0 problems</title></rect><rect x="120" y="35" width="12" height="12" rx="2" fill="#161b22"><title>2026-01-05: 0 problems</title></rect><rect x="120" y="50" width="12" height="12" rx="2" fill="#161b22"><title>2026-01-06: 0 problems</title></rect><rect x="120" y="65" width="12" height="12" rx="2" fill="#161b22"><title>2026-01-07: 0 problems</title></rect><rect x="120" y="80" width="12" height="12" rx="2" fill="#161b22"><title>2026-01-08: 0 problems</title></rect><rect x="120" y="95" width="12" height="12" rx="2" fill="#161b22"><title>2026-01-09: 0 problems</title></rect><rect x="120" y="110" width="12" height="12" rx="2" fill="#161b22"><title>2026-01-10: 0 problems</title></rect><rect x="135" y="20" width="12" height="12" rx="2" fill="#161b22"><title>2026-01-11: 0 problems</title></rect><rect x="135" y="35" width="12" height="12" rx="2" fill="#161b22"><title>2026-01-12: 0 problems</title></rect><rect x="135" y="50" width="12" height="12" rx="2" fill="#161b22"><title>2026-01-13: 0 problems</title></rect><rect x="135" y="65" width="12" height="12" rx="2" fill="#161b22"><title>2026-01-14: 0 problems</title></rect><rect x="135" y="80" width="12" height="12" rx="2" fill="#161b22"><title>2026-01-15: 0 problems</title></rect><rect x="135" y="95" width="12" height="12" rx="2" fill="#161b22"><title>2026-01-16: 0 problems</title></rect><rect x="135" y="110" width="12" height="12" rx="2" fill="#161b22"><title>2026-01-17: 0 problems</title></rect><rect x="150" y="20" width="12" height="12" rx="2" fill="#161b22"><title>2026-01-18: 0 problems</title></rect><rect x="150" y="35" width="12" height="12" rx="2" fill="#161b22"><title>2026-01-19: 0 problems</title></rect><rect x="150" y="50" width="12" height="12" rx="2" fill="#161b22"><title>2026-01-20: 0 problems</title></rect><rect x="150" y="65" width="12" height="12" rx="2" fill="#161b22"><title>2026-01-21: 0 problems</title></rect><rect x="150" y="80" width="12" height="12" rx="2" fill="#161b22"><title>2026-01-22: 0 problems</title></rect><rect x="150" y="95" width="12" height="12" rx="2" fill="#161b22"><title>2026-01-23: 0 problems</title></rect><rect x="150" y="110" width="12" height="12" rx="2" fill="#161b22"><title>2026-01-24: 0 problems</title></rect><rect x="165" y="20" width="12" height="12" rx="2" fill="#161b22"><title>2026-01-25: 0 problems</title></rect><rect x="165" y="35" width="12" height="12" rx="2" fill="#161b22"><title>2026-01-26: 0 problems</title></rect><rect x="165" y="50" width="12" height="12" rx="2" fill="#161b22"><title>2026-01-27: 0 problems</title></rect><rect x="165" y="65" width="12" height="12" rx="2" fill="#161b22"><title>2026-01-28: 0 problems</title></rect><rect x="165" y="80" width="12" height="12" rx="2" fill="#161b22"><title>2026-01-29: 0 problems</title></rect><rect x="165" y="95" width="12" height="12" rx="2" fill="#161b22"><title>2026-01-30: 0 problems</title></rect><rect x="165" y="110" width="12" height="12" rx="2" fill="#161b22"><title>2026-01-31: 0 problems</title></rect><rect x="180" y="20" width="12" height="12" rx="2" fill="#161b22"><title>2026-02-01: 0 problems</title></rect><rect x="180" y="35" width="12" height="12" rx="2" fill="#161b22"><title>2026-02-02: 0 problems</title></rect><rect x="180" y="50" width="12" height="12" rx="2" fill="#161b22"><title>2026-02-03: 0 problems</title></rect><rect x="180" y="65" width="12" height="12" rx="2" fill="#161b22"><title>2026-02-04: 0 problems</title></rect><rect x="180" y="80" width="12" height="12" rx="2" fill="#161b22"><title>2026-02-05: 0 problems</title></rect><rect x="180" y="95" width="12" height="12" rx="2" fill="#161b22"><title>2026-02-06: 0 problems</title></rect><rect x="180" y="110" width="12" height="12" rx="2" fill="#161b22"><title>2026-02-07: 0 problems</title></rect><rect x="195" y="20" width="12" height="12" rx="2" fill="#161b22"><title>2026-02-08: 0 problems</title></rect><rect x="195" y="35" width="12" height="12" rx="2" fill="#161b22"><title>2026-02-09: 0 problems</title></rect><rect x="195" y="50" width="12" height="12" rx="2" fill="#161b22"><title>2026-02-10: 0 problems</title></rect><rect x="195" y="65" width="12" height="12" rx="2" fill="#161b22"><title>2026-02-11: 0 problems</title></rect><rect x="195" y="80" width="12" height="12" rx="2" fill="#161b22"><title>2026-02-12: 0 problems</title></rect><rect x="195" y="95" width="12" height="12" rx="2" fill="#161b22"><title>2026-02-13: 0 problems</title></rect><rect x="195" y="110" width="12" height="12" rx="2" fill="#161b22"><title>2026-02-14: 0 problems</title></rect><rect x="210" y="20" width="12" height="12" rx="2" fill="#161b22"><title>2026-02-15: 0 problems</title></rect><rect x="210" y="35" width="12" height="12" rx="2" fill="#161b22"><title>2026-02-16: 0 problems</title></rect><rect x="210" y="50" width="12" height="12" rx="2" fill="#161b22"><title>2026-02-17: 0 problems</title></rect><rect x="210" y="65" width="12" height="12" rx="2" fill="#161b22"><title>2026-02-18: 0 problems</title></rect><rect x="210" y="80" width="12" height="12" rx="2" fill="#161b22"><title>2026-02-19: 0 problems</title></rect><rect x="210" y="95" width="12" height="12" rx="2" fill="#161b22"><title>2026-02-20: 0 problems</title></rect><rect x="210" y="110" width="12" height="12" rx="2" fill="#161b22"><title>2026-02-21: 0 problems</title></rect><rect x="225" y="20" width="12" height="12" rx="2" fill="#161b22"><title>2026-02-22: 0 problems</title></rect><rect x="225" y="35" width="12" height="12" rx="2" fill="#161b22"><title>2026-02-23: 0 problems</title></rect><rect x="225" y="50" width="12" height="12" rx="2" fill="#161b22"><title>2026-02-24: 0 problems</title></rect><rect x="225" y="65" width="12" height="12" rx="2" fill="#161b22"><title>2026-02-25: 0 problems</title></rect><rect x="225" y="80" width="12" height="12" rx="2" fill="#161b22"><title>2026-02-26: 0 problems</title></rect><rect x="225" y="95" width="12" height="12" rx="2" fill="#161b22"><title>2026-02-27: 0 problems</title></rect><rect x="225" y="110" width="12" height="12" rx="2" fill="#161b22"><title>2026-02-28: 0 problems</title></rect><rect x="240" y="20" width="12" height="12" rx="2" fill="#161b22"><title>2026-03-01: 0 problems</title></rect><rect x="240" y="35" width="12" height="12" rx="2" fill="#161b22"><title>2026-03-02: 0 problems</title></rect><rect x="240" y="50" width="12" height="12" rx="2" fill="#161b22"><title>2026-03-03: 0 problems</title></rect><rect x="240" y="65" width="12" height="12" rx="2" fill="#161b22"><title>2026-03-04: 0 problems</title></rect><rect x="240" y="80" width="12" height="12" rx="2" fill="#161b22"><title>2026-03-05: 0 problems</title></rect><rect x="240" y="95" width="12" height="12" rx="2" fill="#161b22"><title>2026-03-06: 0 problems</title></rect><rect x="240" y="110" width="12" height="12" rx="2" fill="#161b22"><title>2026-03-07: 0 problems</title></rect><rect x="255" y="20" width="12" height="12" rx="2" fill="#161b22"><title>2026-03-08: 0 problems</title></rect><rect x="255" y="35" width="12" height="12" rx="2" fill="#161b22"><title>2026-03-09: 0 problems</title></rect><rect x="255" y="50" width="12" height="12" rx="2" fill="#161b22"><title>2026-03-10: 0 problems</title></rect><rect x="255" y="65" width="12" height="12" rx="2" fill="#161b22"><title>2026-03-11: 0 problems</title></rect><rect x="255" y="80" width="12" height="12" rx="2" fill="#161b22"><title>2026-03-12: 0 problems</title></rect><rect x="255" y="95" width="12" height="12" rx="2" fill="#161b22"><title>2026-03-13: 0 problems</title></rect><rect x="255" y="110" width="12" height="12" rx="2" fill="#161b22"><title>2026-03-14: 0 problems</title></rect><rect x="270" y="20" width="12" height="12" rx="2" fill="#161b22"><title>2026-03-15: 0 problems</title></rect><rect x="270" y="35" width="12" height="12" rx="2" fill="#161b22"><title>2026-03-16: 0 problems</title></rect><rect x="270" y="50" width="12" height="12" rx="2" fill="#161b22"><title>2026-03-17: 0 problems</title></rect><rect x="270" y="65" width="12" height="12" rx="2" fill="#161b22"><title>2026-03-18: 0 problems</title></rect><rect x="270" y="80" width="12" height="12" rx="2" fill="#161b22"><title>2026-03-19: 0 problems</title></rect><rect x="270" y="95" width="12" height="12" rx="2" fill="#161b22"><title>2026-03-20: 0 problems</title></rect><rect x="270" y="110" width="12" height="12" rx="2" fill="#161b22"><title>2026-03-21: 0 problems</title></rect><rect x="285" y="20" width="12" height="12" rx="2" fill="#161b22"><title>2026-03-22: 0 problems</title></rect><rect x="285" y="35" width="12" height="12" rx="2" fill="#161b22"><title>2026-03-23: 0 problems</title></rect><rect x="285" y="50" width="12" height="12" rx="2" fill="#161b22"><title>2026-03-24: 0 problems</title></rect><rect x="285" y="65" width="12" height="12" rx="2" fill="#161b22"><title>2026-03-25: 0 problems</title></rect><rect x="285" y="80" width="12" height="12" rx="2" fill="#161b22"><title>2026-03-26: 0 problems</title></rect><rect x="285" y="95" width="12" height="12" rx="2" fill="#161b22"><title>2026-03-27: 0 problems</title></rect><rect x="285" y="110" width="12" height="12" rx="2" fill="#161b22"><title>2026-03-28: 0 problems</title></rect><rect x="300" y="20" width="12" height="12" rx="2" fill="#161b22"><title>2026-03-29: 0 problems</title></rect><rect x="300" y="35" width="12" height="12" rx="2" fill="#161b22"><title>2026-03-30: 0 problems</title></rect><rect x="300" y="50" width="12" height="12" rx="2" fill="#161b22"><title>2026-03-31: 0 problems</title></rect><rect x="300" y="65" width="12" height="12" rx="2" fill="#161b22"><title>2026-04-01: 0 problems</title></rect><rect x="300" y="80" width="12" height="12" rx="2" fill="#161b22"><title>2026-04-02: 0 problems</title></rect><rect x="300" y="95" width="12" height="12" rx="2" fill="#161b22"><title>2026-04-03: 0 problems</title></rect><rect x="300" y="110" width="12" height="12" rx="2" fill="#161b22"><title>2026-04-04: 0 problems</title></rect><rect x="315" y="20" width="12" height="12" rx="2" fill="#161b22"><title>2026-04-05: 0 problems</title></rect><rect x="315" y="35" width="12" height="12" rx="2" fill="#161b22"><title>2026-04-06: 0 problems</title></rect><rect x="315" y="50" width="12" height="12" rx="2" fill="#161b22"><title>2026-04-07: 0 problems</title></rect><rect x="315" y="65" width="12" height="12" rx="2" fill="#161b22"><title>2026-04-08: 0 problems</title></rect></svg>